<mxfile host="app.diagrams.net" modified="2024-04-04T21:38:26.530Z" agent="Mozilla/5.0 (Macintosh; Intel Mac OS X 10_15_7) AppleWebKit/605.1.15 (KHTML, like Gecko) Version/17.4.1 Safari/605.1.15" version="24.2.2" etag="J7sAz81rh29QcyTGfpI3" type="github">
  <diagram name="Page-1" id="N_EurB4zn9OBiNYitLuK">
    <mxGraphModel>
      <root>
        <mxCell id="0" />
        <mxCell id="1" parent="0" />
      </root>
    </mxGraphModel>
  </diagram>
</mxfile>
